<?xml version="1.0" encoding="UTF-8" standalone="no"?><!DOCTYPE svg PUBLIC "-//W3C//DTD SVG 1.1//EN" "http://www.w3.org/Graphics/SVG/1.1/DTD/svg11.dtd"><svg width="100%" height="100%" viewBox="0 0 123 123" version="1.1" xmlns="http://www.w3.org/2000/svg" xmlns:xlink="http://www.w3.org/1999/xlink" xml:space="preserve" xmlns:serif="http://www.serif.com/" style="fill-rule:evenodd;clip-rule:evenodd;stroke-linejoin:round;stroke-miterlimit:2;"><path d="M93.052,60l0,38.88c0,1.92 -0.168,3.264 -0.504,4.032c-0.336,0.768 -1.08,1.776 -2.232,3.024l-2.592,2.592c-2.208,2.208 -4.464,3.312 -6.768,3.312l-47.52,0c-2.304,0 -4.56,-1.104 -6.768,-3.312l-2.592,-2.592c-0.768,-0.864 -1.32,-1.512 -1.656,-1.944c-0.336,-0.432 -0.6,-1.056 -0.792,-1.872c-0.192,-0.816 -0.288,-1.896 -0.288,-3.24l0,-30.816c0,-2.304 0.12,-3.744 0.36,-4.32c0.24,-0.576 1.08,-1.44 2.52,-2.592l5.904,-4.896c1.632,-1.344 2.928,-2.016 3.888,-2.016l5.76,0l0,-0.576c-1.248,-0.096 -2.544,-0.816 -3.888,-2.16l-4.176,-3.456c-1.248,-0.96 -1.992,-1.68 -2.232,-2.16c-0.24,-0.48 -0.36,-1.536 -0.36,-3.168l0,-18.72c0,-2.88 1.152,-5.28 3.456,-7.2l3.456,-2.88c2.304,-1.92 4.608,-2.88 6.912,-2.88l32.544,0c2.304,0 4.608,0.96 6.912,2.88l3.456,2.88c2.304,1.92 3.456,4.32 3.456,7.2l0,5.76l-12.096,0l0,-2.736c0,-1.44 -0.072,-2.376 -0.216,-2.808c-0.144,-0.432 -0.648,-0.984 -1.512,-1.656c-0.864,-0.672 -1.536,-1.08 -2.016,-1.224c-0.48,-0.144 -1.632,-0.216 -3.456,-0.216l-21.744,0c-1.728,0 -2.832,0.072 -3.312,0.216c-0.48,0.144 -1.152,0.552 -2.016,1.224c-0.864,0.672 -1.368,1.224 -1.512,1.656c-0.144,0.432 -0.216,1.368 -0.216,2.808l0,13.536c0,1.824 0.12,3 0.36,3.528c0.24,0.528 1.08,1.368 2.52,2.52c1.824,1.536 3.168,2.472 4.032,2.808c0.864,0.336 2.448,0.504 4.752,0.504l50.544,0l0,10.08l-10.368,0Zm-52.56,41.76l33.408,0c1.728,0 2.832,-0.072 3.312,-0.216c0.48,-0.144 1.152,-0.552 2.016,-1.224c0.864,-0.672 1.368,-1.224 1.512,-1.656c0.144,-0.432 0.216,-1.368 0.216,-2.808l0,-35.856l-36.144,0c-1.824,-0 -3.024,0.096 -3.6,0.288c-0.576,0.192 -1.584,0.912 -3.024,2.16l-2.16,1.872c-1.728,1.536 -2.592,3.36 -2.592,5.472l0,26.064c0,1.44 0.072,2.376 0.216,2.808c0.144,0.432 0.648,0.984 1.512,1.656c0.864,0.672 1.536,1.08 2.016,1.224c0.48,0.144 1.584,0.216 3.312,0.216Z" style="fill:#593246;fill-rule:nonzero;"/></svg>